<mxfile host="app.diagrams.net" agent="Mozilla/5.0 (Windows NT 10.0; Win64; x64) AppleWebKit/537.36 (KHTML, like Gecko) Chrome/138.0.0.0 Safari/537.36" version="28.0.7">
  <diagram name="Page-1" id="o3pYhXge9fSb7pM9Cy2A">
    <mxGraphModel dx="1042" dy="570" grid="1" gridSize="10" guides="1" tooltips="1" connect="1" arrows="1" fold="1" page="1" pageScale="1" pageWidth="850" pageHeight="1100" math="0" shadow="0">
      <root>
        <mxCell id="0" />
        <mxCell id="1" parent="0" />
        <mxCell id="JNUC-jACi6Gcq279xXEJ-1" value="" style="shape=image;verticalLabelPosition=bottom;labelBackgroundColor=default;verticalAlign=top;aspect=fixed;imageAspect=0;image=data:image/png,iVBORw0KGgoAAAANSUhEUgAABM4AAADnCAIAAABpB43vAAAgAElEQVR4Ae3d249c9YEn8PwZ+3Zy2QRYG5JMBgcwEEJi0r0bZ4YJCRbuQGJZiddmLc3I28QE0mswDgt4HYTQOgyEsRg8XMLM5rIsWjKWWzOOFK2J8oDyEPtpHudp8sZTvDq/c6nfuVS5uru6TtXpT8tynTqX3+Vzqh6++v1+pz60zR8BAgQIECBAgAABAgQIEJiowIc+9N33/euNwLZt2/6dPwIECBAgQIAAAQIECHQt8KHEX48ERM2uv1DqJ0CAAAECBAgQIEAgFRA1exQ0k0TU9LUmQIAAAQIECBAgQGAWBERNUXMWPofaQIAAAQIECBAgQIBArwRETVGzVx9onSFAgAABAgQIECBAYBYERE1RcxY+h9pAgAABAgQIECBAgECvBERNUbNXH2idIUCAAAECBAgQIEBgFgRETVFzFj6H2kCAAAECBAgQIECAQK8ERE1Rs1cfaJ0hQIAAAQIECBAgQGAWBERNUXMWPofaQIAAAQIECBAgQIBArwRETVGzVx9onSFAgAABAgQIECBAYBYERE1RcxY+h9pAgAABAgQIECBAgECvBERNUbNXH2idIUCAAAECBAgQIEBgFgRETVFzFj6H2kCAAAECBAgQIECAQK8ENhg1P3bPa7tOvPbJ63uV1+a4M9u2bevVx1NnCBAgQIAAAQIECBCYT4GNRc3rrtn3i8WTv7hx53VzHM/61HRRcz6/hlpNgAABAgQIECBAoG8C64+a1/3VZx8/t3hyNfw79/kHvjGrke2xC3+48ocLj7U07/iv/nDlyqXX8iPH0/N+dbzlvHF3baSEWx9defTW9opGHKpfIGr27QuqPwQIECBAgAABAgTmU2C9UfO+P1lJQ+YXj/zwk/c8f/tTq4snf/nZu9Y8tvnapSvpXxTw0rTW/Lv0Rj1TreH9G5eu/OFCe4J841IUNV9Lz2tLpGPXtf4S7n75/Q+ufPCv7x5vpM1bj7/7rx9c+eD9l+8epxmi5nx+DbWaAAECBAgQIECAQN8E1hk1rztxezqe+cr2kH8+fM8biydXd337O+Okofyc1y5nIfNCmvaGJ8n0tMvFuOMaih+cOm4Jldg5uHwNWxsqIY+U//KLeGzz1kd/8S9DImh7u0TNvn1B9YcAAQIECBAgQIDAfAqsM2omD92SRs1f3rJ7IWSemz56/X/66CfWPKqZJMNntyZJkk5wHTYg2R61mnvHndS68bo2XEIeLIu0WXvb7FrLHlFzPr+GWk2AAAECBAgQIECgbwLrjZrXfeKBf1gICzUXTrz12Xv2f6wl94yxa1Q8G5lCkySpDldWI2V6bTZYms7RvfRGSK1hYm40WTc/lDWzWtrg/Cvts2rjib75as+8hFB1GLEdMmt3FEseLy+9tbz81qUPrnxQxM5R18THRM2+fUH1hwABAgQIECBAgMB8Cqw3aqb55qM7H7955Zd54Fz5H5+IM8+Y27WAF11VjY7RgXIzjanF3Np0+8pgqu2g2DT4Xbp0uVgOGs9xDYeKublpdeU83vTy4nFBrWF4UH5y/MLlLFKGEi6X60IrObZs8xgbtx5OQ+aVK1c+uPTW4cbSzasUIGrO59dQqwkQIECAAAECBAj0TWAjUTOLPR/+9F/tyB4RtG/fVYJQ4/DQPNka8GqXR1EzPI/nV5eK5Dl4PE8WQcsMmURRs1JFGjuLZwKl5xTbSRJfUjSgrdnZYGYRfZNE1OzbV0V/CBAgQIAAAQIECBAYX2CdUfM//s3iydW7Dh7Ow9fuV9KfPPnLo0UWG/M1DnjxJS370+RW/BU5sHi0bJ45a29DgdHwY/o+jpeVQ1EEbewvRkSjFmYJNpqL20ikLV2Irh+6aQLt+B9dZxIgQIAAAQIECBAgMLsC64yaN/3wznSh5s923LXnY9c/8Onv/nLx5OqdD9w3NEK1H4gCXnRCOmZYjE9Gu5ubebYsxjAfu/CH9BlCxdv0/PrwYxQjK4eiCBpqL0JtZXiz1oBsGLN4alFUQjivvWu1Impva88Bqr2tndz+1gTa2f2qaRkBAgQIECBAgACBrSSwzqiZDB4LlI5nnly967tPrnmtZj2eZempNn+1PVKFvSFbvlau2Eyz36UL5dv0lDh2VpNnZdQxjp3x9oi6s0ODWbKvlctBw5H2ro0qz4+dbKWvnb4SIECAAAECBAgQ6LvAeqNmmpo+fN0Dn/ne6uLJf/jMTTeNSlHDjtXiWTgtDCoOVjwOuzTsz8YVi+f3ZMsjK+OQ9aHFKHkOjZrZs2fzh8qmZWbjllEAfu1ycXRQyCBzZi1u69qovtz98vtDfj8zj6Dvv3z3qOuLY0Y1+/6F1T8CBAgQIECAAAEC8yGwkaiZJMkn9r616/Hnry2Szppe6/EsvXgQ3sYpKi0hWjCZvo1n3taHFivJM5yc/yBKkk6sja7N36a7onWh+XZlhm3+wKF6s9u6dpUO3froyqNDnjc74lC9UFFzPr52WkmAAAECBAgQIECg7wIbjJr1qON9twKiZt+/sPpHgAABAgQIECBAYD4ERM1us+GEaxc15+Nrp5UECBAgQIAAAQIE+i4gak447HVbnKjZ9y+s/hEgQIAAAQIECBCYDwFRs9tsOOHaRc35+NppJQECBAgQIECAAIG+C4iaEw573RYnavb9C6t/BAgQIECAAAECBOZDQNTsNhtOuHZRcz6+dlpJgAABAgQIECBAoO8CouaEw163xYmaff/C6h8BAgQIECBAgACB+RAQNbvNhhOuXdScj6+dVhIgQIAAAQIECBDou4CoOeGw121xombfv7D6R4AAAQIECBAgQGA+BETNbrPhhGsXNefja6eVBAgQIECAAAECBPouIGpOOOx1W5yo2fcvrP4RIECAAAECBAgQmA8BUbPbbDjh2kXN+fjaaSUBAgQIECBAgACBvguImhMOe90WJ2r2/QurfwQIECBAgAABAgTmQ0DU7DYbTrh2UXM+vnZaSYAAAQIECBAgQKDvAqLmhMNet8Vt80eAAAECBAgQIECAAIEZEBA1u82GE659Bj5RmkCAAAECBAgQIECAAIFtouaEw57iCBAgQIAAAQIECBAgQEDU9BkgQIAAAQIECBAgQIAAgQkLiJoTBlUcAQIECBAgQIAAAQIECIiaPgMECBAgQIAAAQIECBAgMGEBUXPCoIojQIAAAQIECBAgQIAAAVHTZ4AAAQIECBAgQIAAAQIEJiywKVHza4c/c/x/3/W1w5+ZcGMVR4AAAQIECBAgQIAAAQLzILApUfOB7990cnXxge/fNA8C2kiAAAECBAgQIECAAAECExaYcNS88XPXHP3bzz9zfvHk6uIz5xeXf3zHtdd/dMJN3nBxe/fuPXPmzN69e5sl7dix4/Tp06dOnUqSJNteWVlpnjb+nhF1jV+IMwkQIECAAAECBAgQIDBfApOMmtdu++jyj+84ubq48tYX9z9x8+M/2/XM+cXv/PedaxU5depUGfCyvPd64+/QoUNrLbY8f0T8EzVLJRsECBAgQIAAAQIECBBYt8Ako+ZNX7zu+M/veuofF/7s259OkuSe//KZp88tfu/sndduG2tgM06VZdRsdmxlZeX06dM7duxoHhpzz4ioGZdgVDPWsE2AAAECBAgQIECAAIHxBSYZNT9108dXfvLFZ84vPvjDWz9+zUc+fs1Hdi78hx13XDtma7IMuWvXrtOnTw+Lmrt27Tpz5sxGhjSTJBE1x7wjTiNAgAABAgQIECBAgMD6BCYZNZMkuf+Rzz59Ll2o+eT//dKhU7f+6W3XrLVZo8cSRw9p1q7NcmmZWvfu3fviiy/u2rUri5qHDh06c+ZMNjO3PCcuId5OkiQrLTt/2LDqqVOnyqm+WR4eUddaZZxPgAABAgQIECBAgACBeRGYcNRMI9m913/v7J1Pn1s4ubp4/Bd33fnV7WuyqAW8+NpxhjTjLHro0KHXX3+9jIXlob179549e/bMmTO7du1KkuTQoUNnz57NnhIU1x5v16o+depUWWzZwrL8rMwyag6rq7zQBgECBAgQIECAAAECBHomMPmomQHd9MXrHv7bO0+uLh7928+PuVYzuzAOeDXrQ4cONQNe7Zxy6DJJklOnTj333HPZSGb2Nhu9zKJmOQs3rnHY9srKSvZY2qy61im4p8Jfsz1nz55trat2prcECBAgQIAAAQIECBDojcAko+bufZ966pcLj77+hev/9N8nSfJn3/70U/+48N/+/ot/svMT43vFYS++qnX/yspKOWE1i4Ll8OOOHTuee+65/fv3nz59+tChQ7t27XrxxRezoctaUIxLHrYdz4zNaiwHQstGZgm2tn9EXeWFNggQIECAAAECBAgQINAzgUlGzc99ZduJ/3PX0+cWvv3kLXf8+fa//J+3n1xdXP6bOyYyqlnLbCNuQza6uHfv3ueee27Hjh3ZgGQ8Ilorali8jPfHv78youps6uzrr79eBs4RdY0ux1ECBAgQIECAAAECBAjMr8Ako2b8WKCTq+nDgR776a47/nwyazXjlZCjubNU+cQTT5TTZZ977rnybfMJtHGkHLY9fu1JksSFiJqjb5ajBAgQIECAAAECBAj0UmDCUTNJkhs/d81//fEdT59bfODRz378mo+sVS3OaeW1rTvLo7WNbA5tOa6YvX399dfLBZMj4l9cUbydTY4tH1S7a9euJ554onwsbbb/iSeeyJ4zVLvwzJkz2cTdWgqtNdtbAgQIECBAgAABAgQI9EZg8lEzHTZ8aMdj/2vXl+775DqY4pxWXl6uwCz3jN6oPSH21KlT5fNm1zeqmV119uzZ2kLNrGFZ1IzXc5ahdESsHd0FRwkQIECAAAECBAgQIDC/ApsSNeeXQ8sJECBAgAABAgQIECBAYOMCoubGDZVAgAABAgQIECBAgAABAhUBUbPC4Q0BAgQIECBAgAABAgQIbFxA1Ny4oRIIECBAgAABAgQIECBAoCIgalY4vCFAgAABAgQIECBAgACBjQuImhs3VAIBAgQIECBAgAABAgQIVAREzQqHNwQIECBAgAABAgQIECCwcYEtGjWv9UeAAAECBAgQIECAAAECmyYgam4arYIJECBAgAABAgQIECCwVQW2dNTc+KCwEggQIECAAAECBAgQIECgKSBqNk3sIUCAAAECBAgQIECAAIENCYiao/i2fefLB3/0tXvuHnVOklx711NfO/jwp7KTbn74awefunnbyCvSc370tW9+59qRZ408ePedB3/05btuCefccvM3r97IkaW1HtykYlvrspMAAQIECBAgQIAAgX4JiJqj7meImkWiG3ZiGskG50wnaqa1FOE22aRMuEnFDmO0nwABAgQIECBAgACBHgnMQNS8/4XVixcvXlx94f7puWZLc5PkU/eU44F339kcjRwnatayZe3tpnSpFgJrbydV5SYVO6nmKYcAAQIECBAgQIAAgRkW6DZqLr1w7uLFcy98//Rqd1EzH5BMU2Vz4ms8T7X9LqZhNZ4KO4WoGQLwnTeX7dmkTLhJxZbNtkGAAAECBAgQIECAQH8Fuoya33/z4urppSRJlrqKmmmayjNbZUpqeb+vFjXrqS9J8qgZctrBH6VrMuOlnunRsLO2P0mSIuum2TU7J06wZYuykdjKoSITDgqvZeaoMYMVnkWJoQtFq8pJuUlSzssdWmxRglcCBAgQIECAAAECBAjUBLqMmmVTOoian7/9W0WiK7NfS8C7StSsPBAo606Iml8uV2+GIDdYyZl3uQiHpUAeNdMmFSenVVdian5ys0lpaV/+5uDRRCGsDkLjp+6JkmfIjUUVWb4tawxvB8G4DKh5UfXx27jxtgkQIECAAAECBAgQIBALbNWoGRZrJoP1mWlorAwVZkjNXBfjhYyXPwa22F/Lctkg5OARPtlpw6PmIOmFdaTNJqXlD2JkKC7LhNHO9nwbVV0WG4LxkOflNooddXLRfa8ECBAgQIAAAQIECBBIkmRLR81izmpSeT5Q/LkYGTVbo1djZxj5jMYV0+KHRs1oBWZr1Gy7sKW0YSOiad2Vwcl89myteZlAo65G12Ip2wQIECBAgAABAgQIEBgIbPmoGc0OjUYUC6A0s8Xxr9ifvqaZrXlJM48197SEw3wua1xXJRNmFUfZOGpJIxPWys/zZDRhuBzVTEsJuTSfRRwNjdYKScplqFHNNgkQIECAAAECBAgQINAqsEWj5uceKR6EEwWwELfisJfFsOqeQjHkt5ZDjWDZsp6zmeKKtZpxgc2o2dwTWtOMmtFgbJYzo0g8pJAsSf4omp3bKLbRtcLCKwECBAgQIECAAAECBKoCWzRqhqWanxyszxw1elkFy9+1BchwqJ7HQmCrjCKuewJtFCArbWrNhPlgbHP67tCoWR+3bC22daptpTXeECBAgAABAgQIECBAYEuv1UyjZj7cN3g+UOUzkebGtlmyYdLp4Dmu8TXVqNlMeuHcRoobY1RzaLitj5GGCbHlMGboQtHUUO/BwQ+BXnvXU/Vx1MEzhxqNrHYt7rRtAgQIECBAgAABAgQIVAS6HNUMv3Fysf537oX0pzY3+S+Mau4oF1u2r4Es5pSWsa1s1KjQFZLe4AdU4tWPYXnn4FA+dzcPe40ZudXhx0bwKxuTJCGFDmYCF8EyPyM+eufN1ccC5Q/ILa6tjL42ahzV66g1NgkQIECAAAECBAgQINBl1OxQP0TNa9fbgDQENvPneksb67phYXisi51EgAABAgQIECBAgACB6QqImmv2bgw/rrmEtV9QHeFc+/WuIECAAAECBAgQIECAwDQFRM1paquLAAECBAgQIECAAAECW0JA1NwSt1knCRAgQIAAAQIECBAgME0BUXOa2uoiQIAAAQIECBAgQIDAlhDY0lEzeziQ/wkQIECAAAECBAgQIEBgsgKi5mQ9lUaAAAECBAgQIECAAAEC127RqLklRqx1kgABAgQIECBAgAABAh0JiJodwauWAAECBAgQIECAAAEC/RUQNft7b/WMAAECBAgQIECAAAECHQmImh3Bq5YAAQIECBAgQIAAAQL9FRA1+3tv9YwAAQIECBAgQIAAAQIdCYiaHcGrlgABAgQIECBAgAABAv0V6Dhqbt995PDysfzfwT3b+wutZwQIECBAgAABAgQIENg6Al1GzTRnDuLlwr3Lx6K3W+cW6CkBAgQIECBAgAABAgT6JtBl1KxZhhHOIws31HZ7S4AAAQIECBAgQIAAAQJzJiBqztkN01wCBAgQIECAAAECBAjMvsAMRc2dS8cOLx/YOftmWkiAAAECBAgQIECAAAECIwVmJmrediB9ONDSwsjWOkiAAAECBAgQIECAAAECcyAwG1Ezy5mDRwTNAZwmEiBAgAABAgQIECBAgMAwgRmImjfs2Z/+3omps8Pukf0ECBAgQIAAAQIECBCYM4Guo6acOWcfGM0lQIAAAQIECBAgQIDA1QU6jZpy5tVvkDMIECBAgAABAgQIECAwfwJdRs3wyNlj6dOA4n9WbM7fp0iLCRAgQIAAAQIECBAgUBHoMmpWGuINAQIECBAgQIAAAQIECPRFQNTsy53UDwIECBAgQIAAAQIECMyMgKg5M7dCQwgQIECAAAECBAgQINAXAVGzL3dSPwgQIECAAAECBAgQIDAzAqLmzNwKDSFAgAABAgQIECBAgEBfBETNvtxJ/SBAgAABAgQIECBAgMDMCIiaM3MrNIQAAQIECBAgQIAAAQJ9ERA1+3In9YMAAQIECBAgQIAAAQIzIyBqzsyt0BACBAgQIECAAAECBAj0RUDU7Mud1A8CBAgQIECAAAECBAjMjICoOTO3QkMIECBAgAABAgQIECDQFwFRs/VOPvTqifPvLu1pPVbs3PP80fMXTpx/dbHYkb0unrlwIt2f/nvwoeqxWX/3g3feuPze0X0dNvMr9//m2e/m/47c3taQ6//68fSEn3yl7aB9BAgQIECAAAECBAjMhoCo2XofNhA18/JCEBU1W3WvvjPkSVHz6lDOIECAAAECBAgQIDCjAp1GzdsOHF4+Nvh3cM/2WVEaJ2qObquoOdpn9NERUXP0hY4SIECAAAECBAgQIDATAp1GzYrAwr3Lxw7PStoUNSv3ZupvRM2pk6uQAAECBAgQIECAwEQFZidqJtt3Hzm8fGDnRLs3rLCHHzx/4eiz99UPlwkz37hv6e1i4eWZhwcn56s0w6G3n98xOBBtDR/VXNdizn2vvHT58tM/SL706ntvXL4c/lUXVYYT8kO/feVLUUuSZP/R32aXpP+/9Or+ysH4wrTkarGVU8d9881bnvnd1x95PLnlzO4Xf/f18G/3f/7muFen57VGzbAzX8n54F/fVCnvG/se/M3ju7+R3P6TYqnnP+27vnLG1VeBVk73hgABAgQIECBAgACBjQhs0agZMmScHjPDNGGGx/ykG2mSzOPokNyYhsa1Rc1Qb3lJqGW89ZxlICxi5L53Lr9x+Z38CT7p43zSIBr+QrAsTkuSZN87UXoMZw7SZuXCJJnQY4FC1EwT5v+75ZbQpL/4+ddf/N0X/iJr3zj/t0bN4sI0NLZFzTRkFvtDsCwfHZQG0fJQFkfbF4IWVXglQIAAAQIECBAgQGBjAjMTNW/Ys3/52P7dN26sO2NfnabELGpGMXLHs+/m0TGEwGjYsz2arjlqpsVWHmw7qoRKX7Ko+c6Tg52DWBiyZXwonFwkz8EVYSsOoo0LB2XWrlrb2yxq/vzTg6se/8KLv1vLwOY6o2aZLZOQJ4uBzXSos9gObWoLq4PG2iJAgAABAgQIECBAYMMCXUfNkDDzJwMtLWy4O2MXUEuVWewcBL96JpxM1ByUX7QzbUbj51KKg/FrSI+D0cjGoWqwfPLp5kTZ4pJ0ODQb82wm0klGzWfOXFtUufbX9UXN+1cGNUXxshksb9r9T34uZWBliwABAgQIECBAgMDkBbqOmlGPdi4dO7x8ZOGGaNcmbqZhMp0ru3jmwoPPPn80TGpNo2A21LkpUTPk1eInN8vf3txw1Ezz4WApZrk9yKXZiGh8ziSiZjlLNl+NGc2PDYdmJmqG2bPFb3UWKzn9MucmfrcUTYAAAQIECBAgQCBJZihqJkn6ENppzaHNw+R9S2+/upg8/GA6rzWNgvmk2U2JmmmsHbq28yofxrWNakaFZTkzml5rVDPSsUmAAAECBAgQIECAwOYIbNmomS7RfHfpocF45tFnH156+0L+kJ7NiZpjT5dt3usRUTMZNV02PLE2eixQ+pSgYgJt/cKwdHNiT6CdmVHNxHTZ5ufJHgIECBAgQIAAAQKbLDA7UfPGhYPHpvZjJ0mSjmRGz5hNs+WFwTN7Nidq5pWWT6Bdw70dFTXzX0CpLtcsyg7Ta4vJtFmYLKNmiJ3FY2xDBH3vpR5GzSRZORI9nLaQ8UqAAAECBAgQIECAwOYJdBk1ww9pHsufCTS9qbM5ZrZysnwebJY8wy+dJEkyMmqGwcni9zaLtZfF42rzBBstxbxQXY1ZX7FZXDj6Ho+Mmuml9RWbxe+gJPFPcaY/iBKNaibxT26mcTStpTIEOrpRw46uf61myIT1dZX5c2XD4ORvosWW6Xb6W5rpX1iQOeSxQIMTopKLC4f1wX4CBAgQIECAAAECBDYi0GXU3Ei7XUuAAAECBAgQIECAAAECMysgas7srdEwAgQIECBAgAABAgQIzKuAqDmvd067CRAgQIAAAQIECBAgMLMCoubM3hoNI0CAAAECBAgQIECAwLwKiJrzeue0mwABAgQIECBAgAABAjMrIGrO7K3RMAIECBAgQIAAAQIECMyrgKg5r3dOuwkQIECAAAECBAgQIDCzAqLmzN4aDSNAgAABAgQIECBAgMC8Coia83rntJsAAQIECBAgQIAAAQIzKyBqzuyt0TACBAgQIECAAAECBAjMq4CoWdy5Hc++e+L8q4vFW68ECBAgQIAAAQIECBAgsF4BUbOQEzULCa8ECBAgQIAAAQIECBDYoMCMRM2Fe5ePHV4+tn/3jRvsz/ovFzXXb+dKAgQIECBAgAABAgQIVARmImruXEpzpqhZuTPeECBAgAABAgQIECBAYG4FZiBq3rBn//Kxe29LBzanPqr50Ksnzl+I/sVrNe9bentw6MGH5vYWazgBAgQIECBAgAABAgSmLdB51Lxx4eCxw0sLSTL1qBlmzL67tCcnr0yg3fP80fMXTpx5OD8WEunRZ++b9t1RHwECBAgQIECAAAECBOZSoOOouX33kcPLB3amdNOOmg8/eP5CnB7jqLl45sKJt5/fEd3RdI/n00YgNgkQIECAAAECBAgQIDBcoNuoGcfLeHt4eyd2JB2oHAxpJkkSRc00hQ6GNLMqG+dPrCUKIkCAAAECBAgQIECAQN8Euoya6dOADu7ZnpPOWNSMBzzTFoY5tFZs9u3zrz8ECBAgQIAAAQIECGyKQHdR87YDh5ePLNxQ9moOomZlFLRsuA0CBAgQIECAAAECBAgQqAp0FjXLHzjJfuYk/n8qz6END/6JRinDpNliNWb7Ws3q6s2qo3cECBAgQIAAAQIECBAgUAp0FjXLFhQbUx7VTMJvmeTpMd0++va7gwf/hCA6mENr9mxxl7wSIECAAAECBAgQIEBgDIGtGzWTJMlGMtMfz0yHN9M8Gf2uZvZ7J/mvbpo6O8ZnySkECBAgQIAAAQIECBDIBWYnarolBAgQIECAAAECBAgQINATAVGzJzdSNwgQIECAAAECBAgQIDA7AqLm7NwLLSFAgAABAgQIECBAgEBPBETNntxI3SBAgAABAgQIECBAgMDsCIias3MvtIQAAQIECBAgQIAAAQI9ERA1e3IjdYMAAQIECBAgQIAAAQKzIyBqzs690BICBAgQIECAAAECBAj0RGCLRs077rjjmmuu6ck91A0CBAgQIECAAAECBAjMmICoOWM3RHMIECBAgAABAgQIECAw/wKi5vzfQz0gQAilbD4AAA66SURBVIAAAQIECBAgQIDAjAmImjN2QzSHAAECBAgQIECAAAEC8y8gas7HPfzBO29cfu/ovk1s7N89cvmPjzwZV3D8wHt/fPFy9u/fDuyPDxXbT/4+PeG9f95Z7PBKgAABAgQIECBAgACBJElEzfn4GGx61Nz/z89cHpEnRxwSNefjI6SVBAgQIECAAAECBKYp0GnUvO3A4eVj1X8HpjM+NndPoN28qLnzlX8rhi7DAGZziDIduhwSNaf5UVUXAQIECBAgQIAAAQLzI9B51DyycEMHWqJmhv7Vd/6Yxcg0cDZDZnaSqNnBJ1SVBAgQIECAAAECBOZbQNSc+v178unLl9/I/73TWH055Gg+qrn/6G+La9+prKtM0hOKQ7995Uvj9Spdn/niO3+XJEkaNcNGy4WtUTNbpZmt5KxfmC/7jMZLf//VSrljrAKtnO8NAQIECBAgQIAAAQJzJiBqTvWG7XvlpcuXX3o1f8TOvncuv3E5SptZXBxkyCefLreLJJlfG8p5+gd520M55UODsjgaFTu8hyFqhsHMdHiznhiL61qjZn4whMb6haHYIsQmSThnMGQ6yLd5xDU7t5D2SoAAAQIECBAgQKA3Ap1HzXit5pQWaiZJ0tEE2jQTVoYc0zHMInmGiFhmy9onLETN4swkSaKTq7Ezva4aaGslVd5GA49/fOaV45Vj5Zv1Rc1BtgxDppfzgc1QYzzI2RpWy7ptECBAgAABAgQIECAwlwKdRs2K2I0LB48dXp7S0s1uomYcLLO+j0yMMU8aNctxy0rU/NKr71UPVY7GZQzbLgYhh/1sybqiZhxco3jZEizTAdUolw5rpf0ECBAgQIAAAQIECMyRwOxEzSS5Yc/+5WP7d984Bb5OomYYbBysqCyXVmYjmfUwWVWoHx1k1BA1a9Nlw9HK8Gm1tPq78Esnj7yTPYq28bDZSUbNKNbmv9g55LG39SZ6T4AAAQIECBAgQIDAPAnMUtRMFu5dPnZ4aWEKfp1EzaQ5qhl1tTkPNjoYnvozYlSzLWoOm4sbF5tvp2EyTGpNM2dj0eYko2bLqGZLe+wiQIAAAQIECBAgQGDOBWYpaoaf2bz3tmmIdhM1B0ORbX0Mz54dlg+Hj2pmKzPLRwSlJY9OrS11P/n7Ygpr5Zk9+ZmTjJqJ6bIt/nYRIECAAAECBAgQ6J3AzETNMHt2OkOa3T0WKPtJkujpPpXPU5gKWz4lKEmS2hNo20c102hZeZLtWmfPZr90Uj6Htvk82IlGzaR14LTi4A0BAgQIECBAgAABAnMv0GXU3L77yOHlwRNopzOemd2xbkY1Q931FZtxgEwqP49Z/x2U+Mz6AGlIm8Xvag4bGq1/WrPUF6+ZLJ4Tm57ZcnTw/J50cLJyYfr2kfynPtOh0SGPBcqaUF+xWVxYb6D3BAgQIECAAAECBAjMqUCXUbNDsg6jZoe9HlJ1un4yToZDTrObAAECBAgQIECAAAEC4wqImuNK9fe8dIzRuGJ/76+eESBAgAABAgQIEOhAQNTsAF2VBAgQIECAAAECBAgQ6LeAqNnv+6t3BAgQIECAAAECBAgQ6EBA1OwAXZUECBAgQIAAAQIECBDot4Co2e/7q3cECBAgQIAAAQIECBDoQEDU7ABdlQQIECBAgAABAgQIEOi3wBaNmv2+qXpHgAABAgQIECBAgACBbgVEzW791U6AAAECBAgQIECAAIEeCoiaPbypukSAAAECBAgQIECAAIFuBUTNbv3VToAAAQIECBAgQIAAgR4KiJrFTd3x7Lsnzr+6WLz1WhdYeuHcxYtvfr++u+3999+8WP69udJ2xgztC/3Km7v6wv0jW7by5sWLVzsnK+D+F1ZLgnMvLI0stfOD6f2a+UZ2rqQBBAgQIECAAAECaxIQNQsuUbOQGPK6hqiZlxDi1pqj5vquGtLoNeweJ0aOc061yrlIcXPRyKqrdwQIECBAgAABArMuMAtRc+He5WOH838HdnYlNvdRMx+dWz3dOoRWGWgca2iyfiNEzSQRNeufCu8JECBAgAABAgQItAt0HDW37z5yePnYvbe1N26qe2ctan7r5V+//+uXvzWWwdLp1XRi50o6abMZNcPRi2seXazXLGqKmvXPhPcECBAgQIAAAQIEhgl0GjVv2LO/45z50Ksnzl+I/sVrNe9bentw6MGHBoJpKH37+R3Jww8W1x599r7B4SRJ4mLPPFw5NN6b4z99//333//Vyw+Mc/rKm/lCuzD1tB41NzYfNR4MTdceVtZqxgcrB/JWD606H4ANixkHSx/j4sp1jmmd0WrPLDZnR+s9HWkVX1jtRXHZsBHL0IuoPYMGF1eOek071boMslJsTS/2yWuOOhs7rb0xRU+iApO8kVGTYvNR3XOMAAECBAgQIECAwBCBLqPmzqVjhw/u2T6kZZu+Owxjvru0J6+oMqq55/mj5y+cKFNiiI5lngxnXjhxvrg2HC2zaLXYEEfLcsbq0wMv/TrNmT97bKyz45NCVIgjRJIUKSI+bdztEHgGMak6qlmtK6SfWl5KknBOI7RUzs3HY+OH8bRflTa6cmW1ASP7lCW3snmhmEG/iktbo2a6M8q6recUBbS+ppU16qqNM4cGlaGxwl47s2aQvm0U3tqMul56ZVljBnuxfOJRqLTkGlae/QQIECBAgAABAgRGCXQYNW9cOHjs8NJCGjiLtZr7d984qrETPZaGwDI9JkkSR83FMxfCuOWgwnRP8XzaLGqW2TIJw5tFUfViwwhnEUoH5Q3beuxnacz86fFhx0fub0lfeT4MYaY5PjaytHqsqkTNRoJKd9RSbmvUbMSYSrFpg4ZFzcb+RlFDulPvSDYPNgqQ2XXN05JG21rOGVJpsbsBlYe+qlW4P1m4q3czOjQCp6hu+GujL9GpoY5B8hx6C6JLbBIgQIAAAQIECBAYLdBh1MyfBjRYqHnbgcPLx6aVNtOhyEoCjKJm21BkdH50ZoYbxcvotBw+DJBGuXT4/Xjg5V+9//7Y6zNbymmJmiFE1MflGpmwpazmcGicVdJiq2EpPloUV09NSdIMb9k4XTw013JVWmBLsBwv+FWzWta2Zvvb1mE2WzJejUX/09e0prh3SXvQHZyWVhHH4FpT07fVE+LaRm0XV7Y8E2pQe1ZAs+OjCnaMAAECBAgQIECAQItA11FzaSFu1BSn1DYyYRQgo+hYti49/0KWGKMzs8OD88OhwQrPchXoOFEzW5+5GVGzOheykitCqCiW76URpgwildPSfkZhsn5VUcDg6gDTkljyvFNcULzGYazlqrS0IVcOxuJqJ5RJuNGRorBaa5sxstmS2jl1h1qJRbPj3uVRc9DsIJX1Lrs8OBeXhIBdOzmckMvVDmWFDf0/lFZcGT2puE7U7PjQIh0gQIAAAQIECBAg0C7QYdTMJ9DG7ZrxqJmPgo6ImmucLhv3PdvOJtD++qWxngdUvzwkhDJihaNRPizOrueKYn/ttXFaXFR6sFpR7erwtiWxxIW0XTJ8jmjLqOaQAmq7Gx1pncI65VHNekSMGpluRn/1Mwe9y4Pu8BMGp9a28rBa3sGo9nBmy42rleAtAQIECBAgQIAAgasIdBg1k0awbAmfV2n++g/X57WGSbPFasz2tZrpU2fTv1FRs17sOhq4yY8FGiPshUbXo12Y2FmMeo5XSFtiqaeaFqD0lDIFDY7XRhQHB6621bywuad9sLHWkiyhrS3atfW3Vmwl+tbZR3dumHArYKWoyh2sN7Kt2MrV3hAgQIAAAQIECBC4mkCXUTMJP3ZSLs4Mv7F5ZOGGqzV5QsfDb5nk6THdPvr2u+WDf5KQGIsn/eQ/XlJOgh0VNZMkPECosgp0HQ1e04+dlOWHhFAPadWdIcmMF5biC9Pt1dVz0QTbkDzrdZUtyTZCCfUn0IadRWStXZC9zRJdczLqsP2thcQ7w4XFlNR8Km6z+Lb8mWawoq0hj62uXhxPr6i/nuLC/tpdiGtJ2ppRFJYOvcbmtXLCaaGwi40ForVn1cY3t7mgtPXGDRphiwABAgQIECBAgMDVBTqNmkmSpc3iCbQHdl69wZM8IxvJTJdWpjEyXY0Z/a5mSJvFYstKdBwdNYthz2jFZjEcuqa2f+vlX4+5bjMLb9Gcy7AZJaLKCc2MNbxZIU+G0tKr0hATX10pdvBTGUOWVcZXFnGoaHM9jlYXZsZHG1eWa0uH9yI9ksXUvL44rWVPWy0aUrwOcungwvSqtMsR7PA6QwgsSite43orJwyqS0us93GQdkNPTq8W5VUPFI3JLo/ryo9U71ddNW5DODM+oSjbKwECBAgQIECAAIFxBbqOmuO203kEtoRACIrVNDvOAPKWsNFJAgQIECBAgACBeRIQNefpbmlr3wVqc31Dd8MYY8soZd8t9I8AAQIECBAgQGCuBUTNub59Gt83gcaoZjaDtzrO2bdO6w8BAgQIECBAgEAPBUTNHt5UXZprgfpazXgV5Vx3TOMJECBAgAABAgS2koCouZXutr4SIECAAAECBAgQIEBgKgKi5lSYVUKAAAECBAgQIECAAIGtJCBqbqW7ra8ECBAgQIAAAQIECBCYioCoORVmlRAgQIAAAQIECBAgQGArCYiaW+lu6ysBAgQIECBAgAABAgSmIiBqToVZJQQIECBAgAABAgQIENhKAqLmVrrb+kqAAAECBAgQIECAAIGpCIiaU2FWCQECBAgQIECAAAECBLaSgKi5le62vhIgQIAAAQIECBAgQGAqAqLmVJhVQoAAAQIECBAgQIAAga0kIGpupbutrwQIECBAgAABAgQIEJiKgKg5FWaVECBAgAABAgQIECBAYCsJiJpb6W7rKwECBAgQIECAAAECBKYiIGpOhVklBAgQIECAAAECBAgQ2EoCouZWutv6SoAAAQIECBAgQIAAgakIiJpTYVYJAQIECBAgQIAAAQIEtpKAqLmV7ra+EiBAgAABAgQIECBAYCoCouZUmFVCgAABAgQIECBAgACBrSQgam6lu62vBAgQIECAAAECBAgQmIrA/wdfemFhpjhcNAAAAABJRU5ErkJggg==;" vertex="1" parent="1">
          <mxGeometry x="90" y="110" width="1230" height="231" as="geometry" />
        </mxCell>
        <mxCell id="tHLZwFviL0HANw9kgwiX-2" value="&lt;font style=&quot;color: rgb(54, 255, 44); font-size: 22px;&quot;&gt;Here in line number 3 the word line can be replaceable, if our input is path and that path have files then we have wite &lt;/font&gt;&lt;font style=&quot;font-size: 22px; color: rgb(255, 0, 128);&quot;&gt;file &lt;/font&gt;&lt;font style=&quot;color: rgb(54, 255, 44); font-size: 22px;&quot;&gt;in place of &lt;/font&gt;&lt;font style=&quot;font-size: 22px; color: rgb(255, 0, 0);&quot;&gt;line&lt;/font&gt;&lt;font style=&quot;color: rgb(54, 255, 44); font-size: 22px;&quot;&gt;.&lt;/font&gt;" style="rounded=0;whiteSpace=wrap;html=1;fillColor=#dae8fc;strokeColor=#6c8ebf;" parent="1" vertex="1">
          <mxGeometry x="390" y="120" width="570" height="160" as="geometry" />
        </mxCell>
        <mxCell id="JNUC-jACi6Gcq279xXEJ-6" value="" style="shape=flexArrow;endArrow=classic;html=1;rounded=0;fillColor=#f8cecc;strokeColor=#b85450;entryX=0.006;entryY=0.321;entryDx=0;entryDy=0;entryPerimeter=0;" edge="1" parent="1" target="tHLZwFviL0HANw9kgwiX-2">
          <mxGeometry width="50" height="50" relative="1" as="geometry">
            <mxPoint x="320" y="230" as="sourcePoint" />
            <mxPoint x="370" y="180" as="targetPoint" />
          </mxGeometry>
        </mxCell>
        <mxCell id="JNUC-jACi6Gcq279xXEJ-9" value="" style="shape=flexArrow;endArrow=classic;html=1;rounded=0;fillColor=#f8cecc;strokeColor=#b85450;entryX=0.006;entryY=0.321;entryDx=0;entryDy=0;entryPerimeter=0;" edge="1" parent="1">
          <mxGeometry width="50" height="50" relative="1" as="geometry">
            <mxPoint x="310" y="289" as="sourcePoint" />
            <mxPoint x="383" y="230" as="targetPoint" />
          </mxGeometry>
        </mxCell>
      </root>
    </mxGraphModel>
  </diagram>
</mxfile>
